<?xml version="1.0" encoding="utf-8"?>
<!-- Generator: Adobe Illustrator 23.0.1, SVG Export Plug-In . SVG Version: 6.00 Build 0)  -->
<svg version="1.1" id="Capa_1" xmlns="http://www.w3.org/2000/svg" xmlns:xlink="http://www.w3.org/1999/xlink" x="0px" y="0px"
	 viewBox="0 0 150 45.1" style="enable-background:new 0 0 150 45.1;" xml:space="preserve">
<style type="text/css">
	.st0{fill:#9EB3C2;}
	.st1{fill:#004F6F;}
</style>
<g>
	<g>
		<path class="st0" d="M59.6,11.9c1.6,0,2.7-1,2.7-2.5l0,0c0-1.6-1-2.5-2.7-2.5h-1.9v5.1H59.6z M55.5,4.8h4.3c2.9,0,4.8,1.6,4.8,4.4
			l0,0c0,2.9-2.2,4.6-4.9,4.6h-1.9v4.3h-2.3V4.8z"/>
		<path class="st0" d="M75,11.5c1.8,0,2.7-0.9,2.7-2.3l0,0c0-1.5-1-2.3-2.7-2.3h-2.4v4.7H75V11.5z M70.4,4.8h4.8
			c1.5,0,2.8,0.5,3.5,1.3c0.8,0.8,1.1,1.8,1.1,2.9v0.1c0,2-1.1,3.3-2.8,3.9l3.2,5.2h-2.5l-2.9-4.8h-0.1h-2.2v4.7h-2.3V4.8H70.4z"/>
	</g>
	<polygon class="st0" points="86.1,4.8 94.6,4.8 94.6,6.8 88.4,6.8 88.4,10.5 93.8,10.5 93.8,12.5 88.4,12.5 88.4,16.2 94.7,16.2 
		94.7,18.2 86.1,18.2 	"/>
	<polygon class="st0" points="100.8,4.8 103,4.8 108.8,13.8 108.8,4.8 110.9,4.8 110.9,18.2 109,18.2 103,8.9 103,18.2 100.8,18.2 	
		"/>
	<g>
		<path class="st0" d="M116.8,16.4l1.4-1.6c1,0.9,2.2,1.6,3.5,1.6c1.3,0,2.2-0.8,2.2-1.6l0,0c0-0.9-0.4-1.4-2.5-2.2
			c-2.5-1-3.9-1.9-3.9-4.1l0,0c0-2.2,1.8-3.8,4.3-3.8c1.5,0,3,0.5,4.2,1.5l-1.3,1.6c-0.9-0.8-1.9-1.3-3-1.3c-1.3,0-1.9,0.6-1.9,1.5
			l0,0c0,0.9,0.5,1.4,2.8,2.3c2.5,1,3.7,2,3.7,3.9l0,0c0,2.4-1.9,3.9-4.3,3.9C119.8,18.3,118.2,17.8,116.8,16.4"/>
	</g>
	<path class="st0" d="M138.7,13l-1.9-5.3l-1.9,5.3H138.7z M135.8,4.8h2.2l4.9,13.4h-2.4l-1.1-3.2h-5.2l-1.1,3.2h-2.3L135.8,4.8z"/>
	<rect x="55.6" y="26.4" class="st0" width="2.3" height="13.4"/>
	<g>
		<path class="st0" d="M69.5,34h-2.7v3.8h2.7c1.5,0,2.5-0.6,2.5-1.9l0,0C72.1,34.7,71.2,34,69.5,34 M71.5,30.1
			c0-1.1-0.9-1.8-2.3-1.8h-2.4V32h2.3C70.5,32.1,71.5,31.5,71.5,30.1L71.5,30.1z M64.6,26.4h4.8c1.4,0,2.7,0.4,3.4,1.1
			c0.6,0.6,0.9,1.4,0.9,2.3l0,0c0,1.6-1,2.5-2,3c1.5,0.5,2.5,1.4,2.5,3.2v0.1c0,2.4-1.9,3.7-4.8,3.7h-4.9V26.4H64.6z"/>
	</g>
	<path class="st0" d="M85.6,22.7l1.9,0.9l-2.3,1.8h-1.6L85.6,22.7z M80.3,26.4h8.5v2h-6.2v3.7h5.6v2h-5.6v3.7h6.3v2h-8.5V26.4H80.3z
		"/>
	<g>
		<path class="st0" d="M99.7,33c1.8,0,2.7-0.9,2.7-2.3l0,0c0-1.5-1-2.3-2.7-2.3h-2.4v4.7h2.4V33z M95,26.4h4.8
			c1.5,0,2.8,0.5,3.5,1.3c0.8,0.8,1.1,1.8,1.1,2.9v0.1c0,2-1.1,3.3-2.8,3.9l3.2,5.2h-2.5l-2.9-4.7h-0.1h-2.2v4.7h-2.3V26.4H95z"/>
	</g>
	<rect x="110.8" y="26.4" class="st0" width="2.3" height="13.4"/>
	<g>
		<path class="st0" d="M119.4,33.1V33c0-4.1,2.5-6.8,6-6.8c1.9,0,3.2,0.6,4.2,1.6l-1.4,1.6c-0.8-0.8-1.6-1.3-2.9-1.3
			c-2.2,0-3.7,1.9-3.7,4.8v0.1c0,2.9,1.6,4.8,3.7,4.8c1.3,0,2.2-0.6,2.9-1.4l1.3,1.5c-1.1,1.3-2.5,1.9-4.4,1.9
			C121.8,40,119.4,37.3,119.4,33.1"/>
	</g>
	<path class="st0" d="M142.3,34.7l-1.9-5.3l-1.9,5.3H142.3z M139.4,26.3h2.2l4.9,13.4h-2.3l-1.1-3.2h-5.2l-1.1,3.2h-2.3L139.4,26.3z
		"/>
	<path class="st0" d="M39.3,11.9H8.7c-2,0-3.5-1.6-3.5-3.7s1.6-3.5,3.5-3.5h30.5c2,0,3.5,1.6,3.5,3.5C42.8,10.2,41.3,11.9,39.3,11.9
		"/>
	<path class="st0" d="M39.8,40h-31c-2,0-3.5-1.6-3.5-3.5c0-2,1.6-3.7,3.5-3.7h31c2,0,3.5,1.6,3.5,3.7C43.4,38.3,41.8,40,39.8,40"/>
	<path class="st1" d="M33.2,26H8.7c-2,0-3.5-1.6-3.5-3.5c0-2,1.6-3.5,3.5-3.5h24.4c2,0,3.5,1.6,3.5,3.5C36.8,24.4,35.2,26,33.2,26"
		/>
</g>
</svg>
